<svg width="24" height="129" viewBox="0 0 24 129" fill="none" xmlns="http://www.w3.org/2000/svg">
<path d="M4.1 115.96C3.8 116.58 3.52 117.34 3.26 118.24C3 119.14 2.87 120.04 2.87 120.94C2.87 122.34 3.22 123.46 3.92 124.3C4.62 125.14 5.5 125.56 6.56 125.56C7.36 125.56 8.03 125.32 8.57 124.84C9.09 124.36 9.54 123.73 9.92 122.95C10.28 122.17 10.63 121.34 10.97 120.46C11.23 119.76 11.52 119.07 11.84 118.39C12.16 117.69 12.55 117.06 13.01 116.5C13.47 115.94 14.04 115.5 14.72 115.18C15.4 114.84 16.24 114.67 17.24 114.67C18.42 114.67 19.47 114.95 20.39 115.51C21.29 116.07 21.99 116.85 22.49 117.85C22.99 118.85 23.24 120.01 23.24 121.33C23.24 122.39 23.11 123.36 22.85 124.24C22.59 125.1 22.29 125.86 21.95 126.52C21.59 127.16 21.29 127.67 21.05 128.05L19.85 127.36C20.17 126.92 20.49 126.39 20.81 125.77C21.13 125.13 21.4 124.44 21.62 123.7C21.84 122.96 21.95 122.22 21.95 121.48C21.95 120.62 21.78 119.79 21.44 118.99C21.1 118.17 20.59 117.5 19.91 116.98C19.21 116.44 18.33 116.17 17.27 116.17C16.25 116.17 15.43 116.42 14.81 116.92C14.17 117.42 13.65 118.06 13.25 118.84C12.85 119.62 12.49 120.45 12.17 121.33C11.91 122.01 11.64 122.69 11.36 123.37C11.06 124.05 10.71 124.67 10.31 125.23C9.89 125.79 9.39 126.24 8.81 126.58C8.23 126.9 7.53 127.06 6.71 127.06C5.69 127.06 4.8 126.8 4.04 126.28C3.28 125.76 2.69 125.06 2.27 124.18C1.83 123.28 1.6 122.26 1.58 121.12C1.58 120.12 1.71 119.11 1.97 118.09C2.23 117.05 2.56 116.15 2.96 115.39L4.1 115.96ZM23.24 105.038C23.24 106.158 22.99 107.178 22.49 108.098C21.97 108.998 21.25 109.718 20.33 110.258C19.41 110.778 18.34 111.038 17.12 111.038C15.82 111.038 14.71 110.758 13.79 110.198C12.85 109.638 12.14 108.878 11.66 107.918C11.16 106.958 10.91 105.868 10.91 104.648C10.91 103.608 11.22 102.628 11.84 101.708C12.46 100.768 13.24 100.098 14.18 99.6984L14.6 99.9084L11.27 99.7284V98.4684H23V99.8784H19.37L19.91 99.5784C20.31 99.7184 20.71 99.9584 21.11 100.298C21.49 100.638 21.85 101.058 22.19 101.558C22.51 102.038 22.77 102.578 22.97 103.178C23.15 103.758 23.24 104.378 23.24 105.038ZM22.04 104.738C22.04 103.858 21.86 103.068 21.5 102.368C21.12 101.648 20.6 101.068 19.94 100.628C19.28 100.188 18.52 99.9384 17.66 99.8784H15.98C15.24 100.038 14.58 100.358 14 100.838C13.42 101.298 12.96 101.868 12.62 102.548C12.28 103.228 12.11 103.968 12.11 104.768C12.11 105.648 12.32 106.458 12.74 107.198C13.14 107.938 13.71 108.528 14.45 108.968C15.19 109.408 16.06 109.628 17.06 109.628C17.98 109.628 18.82 109.408 19.58 108.968C20.32 108.528 20.92 107.938 21.38 107.198C21.82 106.438 22.04 105.618 22.04 104.738ZM23 92.3605H12.59V94.4005H11.3V92.3605H5.39C3.51 92.3605 2.16 92.0405 1.34 91.4005C0.499998 90.7405 0.0799983 89.7705 0.0799983 88.4905C0.0799983 88.2105 0.119998 87.9105 0.199998 87.5905C0.259999 87.2705 0.369999 86.9805 0.53 86.7205L1.55 87.3205C1.45 87.4605 1.38 87.6205 1.34 87.8005C1.28 87.9605 1.25 88.1505 1.25 88.3705C1.25 89.2305 1.55 89.8805 2.15 90.3205C2.75 90.7405 3.82 90.9505 5.36 90.9505H11.3V87.0205H12.59V90.9505H23V92.3605ZM23.24 78.7534C23.24 79.9734 22.97 81.0534 22.43 81.9934C21.89 82.9334 21.16 83.6734 20.24 84.2134C19.3 84.7334 18.25 84.9934 17.09 84.9934C15.95 84.9934 14.91 84.7134 13.97 84.1534C13.03 83.5934 12.28 82.8434 11.72 81.9034C11.16 80.9434 10.88 79.8834 10.88 78.7234C10.88 77.3234 11.29 76.1534 12.11 75.2134C12.93 74.2534 14 73.5634 15.32 73.1434L19.28 83.4034L18.26 83.8234L14.6 74.4334L15.02 74.7334C14.22 75.0734 13.53 75.5934 12.95 76.2934C12.37 76.9734 12.08 77.8134 12.08 78.8134C12.08 79.7134 12.3 80.5234 12.74 81.2434C13.18 81.9634 13.77 82.5434 14.51 82.9834C15.25 83.4034 16.09 83.6134 17.03 83.6134C17.91 83.6134 18.73 83.4134 19.49 83.0134C20.25 82.5934 20.86 82.0134 21.32 81.2734C21.78 80.5334 22.01 79.6834 22.01 78.7234C22.01 78.0834 21.89 77.4734 21.65 76.8934C21.41 76.2934 21.1 75.7634 20.72 75.3034L21.74 74.5834C22.18 75.1434 22.54 75.7934 22.82 76.5334C23.1 77.2534 23.24 77.9934 23.24 78.7534Z" fill="#8FA1BC"/>
<path d="M6.26 57.2643C5.8 58.1043 5.42 58.9643 5.12 59.8443C4.82 60.7043 4.67 61.5143 4.67 62.2743C4.67 63.2143 4.86 63.9543 5.24 64.4943C5.62 65.0343 6.19 65.3043 6.95 65.3043C7.47 65.3043 7.94 65.1043 8.36 64.7043C8.76 64.2843 9.12 63.7543 9.44 63.1143C9.76 62.4543 10.05 61.7743 10.31 61.0743C10.55 60.4343 10.84 59.8043 11.18 59.1843C11.5 58.5443 11.91 57.9743 12.41 57.4743C12.89 56.9743 13.5 56.5743 14.24 56.2743C14.96 55.9743 15.85 55.8243 16.91 55.8243C18.03 55.8243 19.07 56.1143 20.03 56.6943C20.99 57.2743 21.77 58.1243 22.37 59.2443C22.95 60.3643 23.24 61.7443 23.24 63.3843C23.24 64.2243 23.16 65.0843 23 65.9643C22.82 66.8243 22.56 67.6743 22.22 68.5143C21.86 69.3543 21.41 70.1643 20.87 70.9443L17.48 69.0243C17.86 68.5043 18.2 67.9443 18.5 67.3443C18.78 66.7243 19 66.1043 19.16 65.4843C19.32 64.8643 19.4 64.2943 19.4 63.7743C19.4 63.2543 19.33 62.7343 19.19 62.2143C19.03 61.6743 18.77 61.2343 18.41 60.8943C18.05 60.5343 17.55 60.3543 16.91 60.3543C16.47 60.3543 16.07 60.5043 15.71 60.8043C15.35 61.0843 15.02 61.4743 14.72 61.9743C14.42 62.4543 14.16 62.9843 13.94 63.5643C13.68 64.2443 13.38 64.9443 13.04 65.6643C12.7 66.3843 12.29 67.0643 11.81 67.7043C11.31 68.3243 10.7 68.8343 9.98 69.2343C9.24 69.6143 8.34 69.8043 7.28 69.8043C6 69.8043 4.89 69.5243 3.95 68.9643C3.01 68.3843 2.27 67.5743 1.73 66.5343C1.17 65.4943 0.859999 64.2943 0.8 62.9343C0.8 61.1543 1.01 59.7143 1.43 58.6143C1.85 57.4943 2.35 56.4943 2.93 55.6143L6.26 57.2643ZM4.13 51.0241L4.13 46.8241H9.83V43.6441H13.1V46.8241H23V51.0241H13.1V53.0641H9.83V51.0241H4.13ZM23.36 34.9274C23.36 36.1474 23.12 37.2574 22.64 38.2574C22.14 39.2374 21.38 40.0174 20.36 40.5974C19.34 41.1774 18.04 41.4674 16.46 41.4674C14.98 41.4674 13.7 41.1674 12.62 40.5674C11.54 39.9674 10.71 39.1774 10.13 38.1974C9.53 37.2174 9.23 36.1774 9.23 35.0774C9.23 33.7774 9.45 32.7974 9.89 32.1374C10.31 31.4574 10.78 30.8974 11.3 30.4574L11.81 30.6374L9.89 30.2474V26.3474H23V30.5474H20.15L21.05 30.2174C21.05 30.2574 21.17 30.3774 21.41 30.5774C21.63 30.7774 21.9 31.0774 22.22 31.4774C22.52 31.8574 22.78 32.3374 23 32.9174C23.24 33.4774 23.36 34.1474 23.36 34.9274ZM19.94 33.7274C19.94 33.2274 19.87 32.7774 19.73 32.3774C19.57 31.9774 19.35 31.6274 19.07 31.3274C18.77 31.0274 18.4 30.7674 17.96 30.5474H14.75C14.31 30.7074 13.94 30.9474 13.64 31.2674C13.32 31.5874 13.08 31.9674 12.92 32.4074C12.74 32.8474 12.65 33.3374 12.65 33.8774C12.65 34.4774 12.81 35.0374 13.13 35.5574C13.43 36.0574 13.85 36.4574 14.39 36.7574C14.93 37.0574 15.55 37.2074 16.25 37.2074C16.95 37.2074 17.58 37.0474 18.14 36.7274C18.7 36.4074 19.14 35.9874 19.46 35.4674C19.78 34.9274 19.94 34.3474 19.94 33.7274ZM4.13 20.7897L4.13 16.5897H9.83V13.4097H13.1V16.5897H23V20.7897H13.1V22.8297H9.83V20.7897H4.13ZM23.27 5.95305C23.27 7.03305 23.08 8.04305 22.7 8.98305C22.32 9.90305 21.79 10.683 21.11 11.323L18.8 9.58305C19.38 8.94305 19.8 8.35305 20.06 7.81305C20.3 7.25305 20.42 6.75305 20.42 6.31305C20.42 5.97305 20.39 5.67305 20.33 5.41305C20.25 5.13305 20.14 4.91305 20 4.75305C19.84 4.59305 19.64 4.51305 19.4 4.51305C19.06 4.51305 18.79 4.65305 18.59 4.93305C18.39 5.19305 18.23 5.53305 18.11 5.95305C17.97 6.37305 17.83 6.82305 17.69 7.30305C17.31 8.50305 16.76 9.37305 16.04 9.91305C15.3 10.433 14.5 10.693 13.64 10.693C12.98 10.693 12.32 10.523 11.66 10.183C10.98 9.82305 10.42 9.26305 9.98 8.50305C9.52 7.72305 9.29 6.72305 9.29 5.50305C9.29 4.40305 9.4 3.47305 9.62 2.71305C9.84 1.95305 10.2 1.23305 10.7 0.553046L13.16 2.14305C12.86 2.52305 12.61 2.95305 12.41 3.43305C12.19 3.89305 12.07 4.32305 12.05 4.72305C12.03 5.08305 12.07 5.39305 12.17 5.65305C12.27 5.89305 12.4 6.08305 12.56 6.22305C12.72 6.36305 12.89 6.43305 13.07 6.43305C13.45 6.45305 13.75 6.31305 13.97 6.01305C14.19 5.69305 14.36 5.29305 14.48 4.81305C14.6 4.33305 14.74 3.86305 14.9 3.40305C15.1 2.76305 15.37 2.21305 15.71 1.75305C16.05 1.29305 16.46 0.943047 16.94 0.703046C17.4 0.443046 17.96 0.313047 18.62 0.313047C19.42 0.313047 20.18 0.523047 20.9 0.943047C21.6 1.34305 22.17 1.96305 22.61 2.80305C23.05 3.62305 23.27 4.67305 23.27 5.95305Z" fill="#56719D"/>
</svg>
