<svg width="36" height="193" viewBox="0 0 36 193" fill="none" xmlns="http://www.w3.org/2000/svg">
<path d="M6.65 173.94C6.2 174.87 5.78 176.01 5.39 177.36C5 178.71 4.805 180.06 4.805 181.41C4.805 183.51 5.33 185.19 6.38 186.45C7.43 187.71 8.75 188.34 10.34 188.34C11.54 188.34 12.545 187.98 13.355 187.26C14.135 186.54 14.81 185.595 15.38 184.425C15.92 183.255 16.445 182.01 16.955 180.69C17.345 179.64 17.78 178.605 18.26 177.585C18.74 176.535 19.325 175.59 20.015 174.75C20.705 173.91 21.56 173.25 22.58 172.77C23.6 172.26 24.86 172.005 26.36 172.005C28.13 172.005 29.705 172.425 31.085 173.265C32.435 174.105 33.485 175.275 34.235 176.775C34.985 178.275 35.36 180.015 35.36 181.995C35.36 183.585 35.165 185.04 34.775 186.36C34.385 187.65 33.935 188.79 33.425 189.78C32.885 190.74 32.435 191.505 32.075 192.075L30.275 191.04C30.755 190.38 31.235 189.585 31.715 188.655C32.195 187.695 32.6 186.66 32.93 185.55C33.26 184.44 33.425 183.33 33.425 182.22C33.425 180.93 33.17 179.685 32.66 178.485C32.15 177.255 31.385 176.25 30.365 175.47C29.315 174.66 27.995 174.255 26.405 174.255C24.875 174.255 23.645 174.63 22.715 175.38C21.755 176.13 20.975 177.09 20.375 178.26C19.775 179.43 19.235 180.675 18.755 181.995C18.365 183.015 17.96 184.035 17.54 185.055C17.09 186.075 16.565 187.005 15.965 187.845C15.335 188.685 14.585 189.36 13.715 189.87C12.845 190.35 11.795 190.59 10.565 190.59C9.035 190.59 7.7 190.2 6.56 189.42C5.42 188.64 4.535 187.59 3.905 186.27C3.245 184.92 2.9 183.39 2.87 181.68C2.87 180.18 3.065 178.665 3.455 177.135C3.845 175.575 4.34 174.225 4.94 173.085L6.65 173.94ZM35.36 157.558C35.36 159.238 34.985 160.768 34.235 162.148C33.455 163.498 32.375 164.578 30.995 165.388C29.615 166.168 28.01 166.558 26.18 166.558C24.23 166.558 22.565 166.138 21.185 165.298C19.775 164.458 18.71 163.318 17.99 161.878C17.24 160.438 16.865 158.803 16.865 156.973C16.865 155.413 17.33 153.943 18.26 152.563C19.19 151.153 20.36 150.148 21.77 149.548L22.4 149.863L17.405 149.593V147.703H35V149.818H29.555L30.365 149.368C30.965 149.578 31.565 149.938 32.165 150.448C32.735 150.958 33.275 151.588 33.785 152.338C34.265 153.058 34.655 153.868 34.955 154.768C35.225 155.638 35.36 156.568 35.36 157.558ZM33.56 157.108C33.56 155.788 33.29 154.603 32.75 153.553C32.18 152.473 31.4 151.603 30.41 150.943C29.42 150.283 28.28 149.908 26.99 149.818H24.47C23.36 150.058 22.37 150.538 21.5 151.258C20.63 151.948 19.94 152.803 19.43 153.823C18.92 154.843 18.665 155.953 18.665 157.153C18.665 158.473 18.98 159.688 19.61 160.798C20.21 161.908 21.065 162.793 22.175 163.453C23.285 164.113 24.59 164.443 26.09 164.443C27.47 164.443 28.73 164.113 29.87 163.453C30.98 162.793 31.88 161.908 32.57 160.798C33.23 159.658 33.56 158.428 33.56 157.108ZM35 138.541H19.385V141.601H17.45V138.541H8.585C5.765 138.541 3.74 138.061 2.51 137.101C1.25 136.111 0.619997 134.656 0.619997 132.736C0.619997 132.316 0.679998 131.866 0.799998 131.386C0.889998 130.906 1.055 130.471 1.295 130.081L2.825 130.981C2.675 131.191 2.57 131.431 2.51 131.701C2.42 131.941 2.375 132.226 2.375 132.556C2.375 133.846 2.825 134.821 3.725 135.481C4.625 136.111 6.23 136.426 8.54 136.426H17.45V130.531H19.385V136.426H35V138.541ZM35.36 118.13C35.36 119.96 34.955 121.58 34.145 122.99C33.335 124.4 32.24 125.51 30.86 126.32C29.45 127.1 27.875 127.49 26.135 127.49C24.425 127.49 22.865 127.07 21.455 126.23C20.045 125.39 18.92 124.265 18.08 122.855C17.24 121.415 16.82 119.825 16.82 118.085C16.82 115.985 17.435 114.23 18.665 112.82C19.895 111.38 21.5 110.345 23.48 109.715L29.42 125.105L27.89 125.735L22.4 111.65L23.03 112.1C21.83 112.61 20.795 113.39 19.925 114.44C19.055 115.46 18.62 116.72 18.62 118.22C18.62 119.57 18.95 120.785 19.61 121.865C20.27 122.945 21.155 123.815 22.265 124.475C23.375 125.105 24.635 125.42 26.045 125.42C27.365 125.42 28.595 125.12 29.735 124.52C30.875 123.89 31.79 123.02 32.48 121.91C33.17 120.8 33.515 119.525 33.515 118.085C33.515 117.125 33.335 116.21 32.975 115.34C32.615 114.44 32.15 113.645 31.58 112.955L33.11 111.875C33.77 112.715 34.31 113.69 34.73 114.8C35.15 115.88 35.36 116.99 35.36 118.13Z" fill="#8FA1BC"/>
<path d="M9.89 85.8964C9.2 87.1564 8.63 88.4464 8.18 89.7664C7.73 91.0564 7.505 92.2714 7.505 93.4114C7.505 94.8214 7.79 95.9314 8.36 96.7414C8.93 97.5514 9.785 97.9564 10.925 97.9564C11.705 97.9564 12.41 97.6564 13.04 97.0564C13.64 96.4264 14.18 95.6314 14.66 94.6714C15.14 93.6814 15.575 92.6614 15.965 91.6114C16.325 90.6514 16.76 89.7064 17.27 88.7764C17.75 87.8164 18.365 86.9614 19.115 86.2114C19.835 85.4614 20.75 84.8614 21.86 84.4114C22.94 83.9614 24.275 83.7364 25.865 83.7364C27.545 83.7364 29.105 84.1714 30.545 85.0414C31.985 85.9114 33.155 87.1864 34.055 88.8664C34.925 90.5464 35.36 92.6164 35.36 95.0764C35.36 96.3364 35.24 97.6264 35 98.9464C34.73 100.236 34.34 101.511 33.83 102.771C33.29 104.031 32.615 105.246 31.805 106.416L26.72 103.536C27.29 102.756 27.8 101.916 28.25 101.016C28.67 100.086 29 99.1564 29.24 98.2264C29.48 97.2964 29.6 96.4414 29.6 95.6614C29.6 94.8814 29.495 94.1014 29.285 93.3214C29.045 92.5114 28.655 91.8514 28.115 91.3414C27.575 90.8014 26.825 90.5314 25.865 90.5314C25.205 90.5314 24.605 90.7564 24.065 91.2064C23.525 91.6264 23.03 92.2114 22.58 92.9614C22.13 93.6814 21.74 94.4764 21.41 95.3464C21.02 96.3664 20.57 97.4164 20.06 98.4964C19.55 99.5764 18.935 100.596 18.215 101.556C17.465 102.486 16.55 103.251 15.47 103.851C14.36 104.421 13.01 104.706 11.42 104.706C9.5 104.706 7.835 104.286 6.425 103.446C5.015 102.576 3.905 101.361 3.095 99.8014C2.255 98.2414 1.79 96.4414 1.7 94.4014C1.7 91.7314 2.015 89.5714 2.645 87.9214C3.275 86.2414 4.025 84.7414 4.895 83.4214L9.89 85.8964ZM6.695 76.5361V70.2361H15.245V65.4661H20.15L20.15 70.2361H35V76.5361H20.15V79.5961H15.245V76.5361H6.695ZM35.54 52.3911C35.54 54.2211 35.18 55.8861 34.46 57.3861C33.71 58.8561 32.57 60.0261 31.04 60.8961C29.51 61.7661 27.56 62.2011 25.19 62.2011C22.97 62.2011 21.05 61.7511 19.43 60.8511C17.81 59.9511 16.565 58.7661 15.695 57.2961C14.795 55.8261 14.345 54.2661 14.345 52.6161C14.345 50.6661 14.675 49.1961 15.335 48.2061C15.965 47.1861 16.67 46.3461 17.45 45.6861L18.215 45.9561L15.335 45.3711V39.5211H35V45.8211H30.725L32.075 45.3261C32.075 45.3861 32.255 45.5661 32.615 45.8661C32.945 46.1661 33.35 46.6161 33.83 47.2161C34.28 47.7861 34.67 48.5061 35 49.3761C35.36 50.2161 35.54 51.2211 35.54 52.3911ZM30.41 50.5911C30.41 49.8411 30.305 49.1661 30.095 48.5661C29.855 47.9661 29.525 47.4411 29.105 46.9911C28.655 46.5411 28.1 46.1511 27.44 45.8211H22.625C21.965 46.0611 21.41 46.4211 20.96 46.9011C20.48 47.3811 20.12 47.9511 19.88 48.6111C19.61 49.2711 19.475 50.0061 19.475 50.8161C19.475 51.7161 19.715 52.5561 20.195 53.3361C20.645 54.0861 21.275 54.6861 22.085 55.1361C22.895 55.5861 23.825 55.8111 24.875 55.8111C25.925 55.8111 26.87 55.5711 27.71 55.0911C28.55 54.6111 29.21 53.9811 29.69 53.2011C30.17 52.3911 30.41 51.5211 30.41 50.5911ZM6.695 31.1845V24.8845H15.245V20.1145H20.15V24.8845H35V31.1845H20.15V34.2445H15.245V31.1845H6.695ZM35.405 8.92957C35.405 10.5496 35.12 12.0646 34.55 13.4746C33.98 14.8546 33.185 16.0246 32.165 16.9846L28.7 14.3746C29.57 13.4146 30.2 12.5296 30.59 11.7196C30.95 10.8796 31.13 10.1296 31.13 9.46957C31.13 8.95957 31.085 8.50957 30.995 8.11957C30.875 7.69957 30.71 7.36957 30.5 7.12957C30.26 6.88957 29.96 6.76957 29.6 6.76957C29.09 6.76957 28.685 6.97957 28.385 7.39957C28.085 7.78957 27.845 8.29957 27.665 8.92957C27.455 9.55957 27.245 10.2346 27.035 10.9546C26.465 12.7546 25.64 14.0596 24.56 14.8696C23.45 15.6496 22.25 16.0396 20.96 16.0396C19.97 16.0396 18.98 15.7846 17.99 15.2746C16.97 14.7346 16.13 13.8946 15.47 12.7546C14.78 11.5846 14.435 10.0846 14.435 8.25457C14.435 6.60457 14.6 5.20957 14.93 4.06957C15.26 2.92957 15.8 1.84957 16.55 0.829569L20.24 3.21457C19.79 3.78457 19.415 4.42957 19.115 5.14957C18.785 5.83957 18.605 6.48457 18.575 7.08457C18.545 7.62457 18.605 8.08957 18.755 8.47957C18.905 8.83957 19.1 9.12457 19.34 9.33457C19.58 9.54457 19.835 9.64957 20.105 9.64957C20.675 9.67957 21.125 9.46957 21.455 9.01957C21.785 8.53957 22.04 7.93957 22.22 7.21957C22.4 6.49957 22.61 5.79457 22.85 5.10457C23.15 4.14457 23.555 3.31957 24.065 2.62957C24.575 1.93957 25.19 1.41457 25.91 1.05457C26.6 0.66457 27.44 0.46957 28.43 0.46957C29.63 0.46957 30.77 0.78457 31.85 1.41457C32.9 2.01457 33.755 2.94457 34.415 4.20457C35.075 5.43457 35.405 7.00957 35.405 8.92957Z" fill="#56719D"/>
</svg>
