<svg width="30" height="30" viewBox="0 0 30 30" fill="none" xmlns="http://www.w3.org/2000/svg">
<path d="M18.75 5L11.25 8.75M11.25 25L4.44125 21.595C4.23365 21.4913 4.05903 21.3318 3.93694 21.1344C3.81485 20.937 3.75012 20.7096 3.75 20.4775V7.0225C3.75011 6.80951 3.80465 6.60008 3.90843 6.41409C4.01221 6.2281 4.1618 6.07171 4.34299 5.95976C4.52419 5.84781 4.73098 5.78402 4.94376 5.77443C5.15653 5.76485 5.36822 5.80979 5.55875 5.905L11.25 8.75V25ZM11.25 25L18.75 21.25L11.25 25ZM11.25 25V8.75V25ZM18.75 21.25L24.4412 24.095C24.6318 24.1902 24.8435 24.2351 25.0562 24.2256C25.269 24.216 25.4758 24.1522 25.657 24.0402C25.8382 23.9283 25.9878 23.7719 26.0916 23.5859C26.1954 23.3999 26.2499 23.1905 26.25 22.9775V9.5225C26.2499 9.29042 26.1851 9.06296 26.0631 8.86559C25.941 8.66822 25.7664 8.50874 25.5588 8.405L18.75 5V21.25ZM18.75 21.25V5V21.25Z" stroke="#E5E5E5" stroke-width="2" stroke-linecap="round" stroke-linejoin="round"/>
</svg>
