<svg width="45" height="45" viewBox="0 0 45 45" fill="none" xmlns="http://www.w3.org/2000/svg">
<path fill-rule="evenodd" clip-rule="evenodd" d="M14.0625 12.6562C14.0625 7.99635 17.8401 4.21875 22.5 4.21875C27.1599 4.21875 30.9375 7.99635 30.9375 12.6562C30.9375 17.3162 27.1599 21.0938 22.5 21.0938C17.8401 21.0938 14.0625 17.3162 14.0625 12.6562ZM28.125 12.6562C28.125 9.54965 25.6066 7.03125 22.5 7.03125C19.3934 7.03125 16.875 9.54965 16.875 12.6562C16.875 15.7629 19.3934 18.2812 22.5 18.2812C25.6066 18.2812 28.125 15.7629 28.125 12.6562Z" fill="#E5E5E5"/>
<path fill-rule="evenodd" clip-rule="evenodd" d="M8.4375 34.8443C8.4375 27.9775 14.7754 22.5 22.5 22.5C30.2246 22.5 36.5625 27.9775 36.5625 34.8443C36.5625 42.7602 8.4375 42.7602 8.4375 34.8443ZM33.75 34.8443C33.75 29.6293 28.7551 25.3125 22.5 25.3125C16.2449 25.3125 11.25 29.6293 11.25 34.8443C11.25 36.4141 14.4447 37.3923 18.4265 37.7791L19.3583 37.8578C21.4026 38.0057 23.5974 38.0057 25.6417 37.8578L26.5735 37.7791C30.5553 37.3923 33.75 36.4141 33.75 34.8443Z" fill="#E5E5E5"/>
</svg>